/* XPM */
static char *_9cbfdd435984c918546b2bc25b19045zVONcvnxgkmj4JOv[] = {
/* columns rows colors chars-per-pixel */
"64 64 225 2 ",
"   c None",
".  c #020202",
"X  c #0E0E0E",
"o  c #0B0A06",
"O  c #11110F",
"+  c #191505",
"@  c #141412",
"#  c #1B1A13",
"$  c #1D1D1B",
"%  c #191713",
"&  c #100F0E",
"*  c #241E03",
"=  c #211F12",
"-  c #2E2303",
";  c #342E0B",
":  c #312807",
">  c #37300C",
",  c #25231B",
"<  c #292716",
"1  c #302C12",
"2  c #302E1C",
"3  c #3B3617",
"4  c #252522",
"5  c #2D2D2A",
"6  c #2A2924",
"7  c #34332D",
"8  c #393626",
"9  c #363532",
"0  c #3A3935",
"q  c #3A3A39",
"w  c #302F2B",
"e  c #40370C",
"r  c #403D26",
"t  c #413F32",
"y  c #544C1C",
"u  c #534812",
"i  c #524D29",
"p  c #454234",
"a  c #44433A",
"s  c #49473D",
"d  c #524F3C",
"f  c #59543A",
"g  c #524C2A",
"h  c #6D6327",
"j  c #686138",
"k  c #786E2E",
"l  c #444443",
"z  c #4D4C49",
"x  c #514F46",
"c  c #525046",
"v  c #545349",
"b  c #595954",
"n  c #615D45",
"m  c #7D7545",
"M  c #676456",
"N  c #726D4B",
"B  c #696865",
"V  c #71706E",
"C  c #777566",
"Z  c #757573",
"A  c #7A7978",
"S  c #716F60",
"D  c #8E7510",
"F  c #8A7C2D",
"G  c #867C44",
"H  c #BB910C",
"J  c #AE890E",
"K  c #998A2B",
"L  c #948736",
"P  c #A89835",
"I  c #BAA734",
"U  c #C69C0F",
"Y  c #C69D10",
"T  c #C99F10",
"R  c #C8A314",
"E  c #C2A71C",
"W  c #C4A91D",
"Q  c #CCAC19",
"!  c #D0B51E",
"~  c #CEB31E",
"^  c #D1AF23",
"/  c #D3B62B",
"(  c #D0B021",
")  c #C9B434",
"_  c #D4BC32",
"`  c #D5BE3B",
"'  c #C6AD2D",
"]  c #DEC63E",
"[  c #DAC439",
"{  c #E1C935",
"}  c #E3CB3D",
"|  c #8E8447",
" . c #898152",
".. c #9E9152",
"X. c #968B4F",
"o. c #A19659",
"O. c #B4A656",
"+. c #ADA25B",
"@. c #8A8464",
"#. c #8C8974",
"$. c #95906F",
"%. c #A89F70",
"&. c #ACA265",
"*. c #B7AB68",
"=. c #BEB26E",
"-. c #B4AB74",
";. c #BEB170",
":. c #AEA777",
">. c #C2B149",
",. c #C2B256",
"<. c #CDBE66",
"1. c #C8BA65",
"2. c #C5BA78",
"3. c #DFC94C",
"4. c #D8C247",
"5. c #D7C458",
"6. c #E4CE4B",
"7. c #E3CC43",
"8. c #E7D14D",
"9. c #E6D159",
"0. c #E9D45B",
"q. c #CFC16C",
"w. c #CFC067",
"e. c #CEC174",
"r. c #D9CB73",
"t. c #D1C57A",
"y. c #DACD7A",
"u. c #D4C774",
"i. c #DCCD72",
"p. c #E2CF67",
"a. c #EAD96D",
"s. c #E8D666",
"d. c #EAD973",
"f. c #E2D47E",
"g. c #E9D978",
"h. c #8B8B87",
"j. c #999686",
"k. c #999999",
"l. c #B3AD87",
"z. c #BCB488",
"x. c #A6A497",
"c. c #BAB59B",
"v. c #ADA98F",
"b. c #BCBBB5",
"n. c #ADADA5",
"m. c #C2B982",
"M. c #C0B98B",
"N. c #C3BC91",
"B. c #C2BEA1",
"V. c #C1BFB4",
"C. c #D5CB8B",
"Z. c #D7CB85",
"A. c #DDD185",
"S. c #DFD38F",
"D. c #C7C096",
"F. c #CAC395",
"G. c #CBC59A",
"H. c #D8CE98",
"J. c #DED493",
"K. c #DAD19C",
"L. c #CFC687",
"P. c #EDDE83",
"I. c #E7DA8B",
"U. c #E3D898",
"Y. c #F0E185",
"T. c #EEE293",
"R. c #F2E59A",
"E. c #F1E493",
"W. c #C5C0A3",
"Q. c #CCC7AA",
"!. c #CCC8A8",
"~. c #D5CEA5",
"^. c #DCD5A9",
"/. c #CAC8B9",
"(. c #D1CFBC",
"). c #DBD6B2",
"_. c #D6D3BE",
"`. c #DBD6B9",
"'. c #E5DDA7",
"]. c #E3DCB2",
"[. c #E3DDBC",
"{. c #ECE3AC",
"}. c #F1E6A2",
"|. c #F3E9AD",
" X c #EBE5BD",
".X c #E7E1BC",
"XX c #F4EBB2",
"oX c #F4EDBF",
"OX c #D9D6C4",
"+X c #DEDBC3",
"@X c #D4D4CC",
"#X c #DBD9CD",
"$X c #DDDDDA",
"%X c #D8D8D7",
"&X c #CCCCC9",
"*X c #E1DEC4",
"=X c #EAE6CC",
"-X c #EDE9CE",
";X c #E5E1CB",
":X c #F6EEC2",
">X c #F4EECC",
",X c #F7F0C7",
"<X c #F8F1C8",
"1X c #EEEAD1",
"2X c #E2E2DB",
"3X c #EEECDE",
"4X c #E5E3D4",
"5X c #F1EEDC",
"6X c #F9F4D3",
"7X c #F5F2DC",
"8X c #FAF6DB",
"9X c #FBF6DA",
"0X c #EEEDE1",
"qX c #EEEEEA",
"wX c #E3E3E1",
"eX c #F0EEE2",
"rX c #F1EFEA",
"tX c #F4F2E5",
"yX c #F3F1EC",
"uX c #FDFBEC",
"iX c #F8F6E8",
"pX c #F5F5F4",
"aX c #FCFBF5",
"sX c #FBFBF9",
"dX c #F7F7F8",
/* pixels */
"                                                                                                                                ",
"                                                                                                                                ",
"                                                    rXyXyXrXrXyXyXrXyXrXyXrX                                                    ",
"                                            4X4X3X0X3X0XeXeX5XtXeXeXeXeX3X0X0X0X3X3X                                            ",
"                                      [.*X*X*X*X=X1X1X;XOX_._._._._.OX+X;X1X1X1X=X=X-X-X                                        ",
"                                  ^.).).^.).^.!.v.#.M l 7 w 5 6 w 5 5 0 c S j.B.[.;X.X.X.X.X                                    ",
"                              H.K.K.K.K.G.%.M 7 % X X o X X X X X X X X o X O , s @.M.'.'.'.'.'.                                ",
"                            L.C.C.C.m.@.a % X X X X X X X X X X X X X X X X X X o X , b :.J.U.U.J.J.                            ",
"                          t.t.t.2...t X X X X X X X X X X X X X X X X X X X X X X X X X % v ;.A.A.A.A.                          ",
"                      <.q.q.q.+.d @ X X X X X & X X X X X X X X X X X X X X @ X X X X X X X , m 2.y.r.r.                        ",
"                    <.<.q.1.X.2 X X X X X X X X X X X X X X X X X X X X X X X X X X X X X X X @ g *.i.r.r.                      ",
"                  <.<.<.1.k % X X X O X X & X X X X X X X X X X X X X X O X X X X X X X X X X X X 2 o.r.r.r.                    ",
"                w.w.<.1.j @ X X X X O X X X O X X O X X X X w q 0 0 % X X X X X X X X X X X X X O X , X.r.r.r.                  ",
"              q.q.q.1.j O X X X X X X X X X X X X X O X X @ h./.V.b.l X X X X X X X X X X X X X X & X , ..r.y.y.                ",
"              t.e.e.N @ X X X X X X X X X O X X X X X X X @ #.B.B.N.a X X X X X X X X X X X X X X X X X , &.y.A.y.              ",
"            t.t.t.X.% X X X X X O X X X X X X X O X X O & @ $.z.z.z.p X X X X X X @ X X X @ X X X X X X X 8 2.A.A.A.            ",
"          Z.Z.Z.:.2 X X X X X X O X X @ X X X X X X X X X @ G 1.*.*.r o X X X X X X X X X X X X X X X X X X f C.I.J.            ",
"          H.C.L.s X X X X X X X X X X X X X X X X X X X X O G O.O.O.r X X X X X X X X X X X X X X X O X X X @ @.U.J.U.          ",
"        K.K.K.$.@ X @ X X X X X X X O X X X X X X X X X X O r i i i , X X X X X X X X X X X X X O X X X X O X 6 N.'.'.          ",
"        ^.^.G.7 X X X X X X X X X X X X @ X X X X X X X X X X X X o X X X X X X X X X @ X X X @ X X X X X X X X S ].].'.        ",
"      ].^.[.#.X X X X X X X X X & X X X X X X X X O % = # # # # % % # # % # # # $ # # O X X X X X X X X X X X X 4 /. X.X        ",
"      *X.X).a o X X X X X X X X & X X X X X X 8 j G X.......o.o...o.o...............| , X X X X X X O X X X X O X G -X=X=X      ",
"      1X-Xx.@ X X X @ X X X X @ X & X X X 8 G -.=.=.;.;.1.;.G.~.~.~.2.=.;.;.;.;.=.2.&., X X X X X X X X O X X X X 0 *X1X1X      ",
"    3X5X3XB X X X X X X X X X X X X X X d -.m.z.z.m.m.2.z.m.~.`.`.`.N.m.m.2.z.2.z.m.:., X X X X X O X X X X X X X @ n.tXeX      ",
"    tXyX$Xq X X X X X X X X X X & X o p z.D.D.D.D.D.D.D.D.D._.+X[.*X!.N.F.F.N.G.N.G.l.4 X X X X X X X X X X X X X X A yXrXrX    ",
"    yXpX&X$ X X X X X X X X X X X X # x.!.!.!.!.Q.Q.!.W.W.B._.OXOXOXQ.B.W.B.W.B.B.B.v.5 X X X X @ X X X X X X X X X l qXpXpX    ",
"    dXsXk.@ X X X X X X X X X X X . M (._.(.(.&Xn.S a 9 7 7 9 0 9 9 9 7 7 9 7 7 9 9 w @ X X X X X X X X @ X X X X X 4 %XdXdX    ",
"  dXdXsXA X X X X X X X X X @ X X @ x.@X@X@X@Xk.4 . . . . . . . . . . . . . . . . . . X X X X X X X X X X X X X X X @ b.sXdX    ",
"  sXdXdXM X X X X X X X X X X X X 5 &X%X%X$Xn.$ o X X & X X X X . X o X o X o X X X o X @ X X X X X X X X X @ X X X X x.sXsX    ",
"  dXdXpXz o X X X X X X X X X X o z $X$X$X$Xb . X X X X X X q Z Z Z Z Z Z Z Z V Z Z V 4 X X X X X X X X X X X X X X X k.sXsX    ",
"  dXsXrXl X X X X X X X @ X X X . B wXwX2X@X9 X X X X X X X V qXqXqXqXqXqXqXqXqXqXqXwXq X X X X X X X X X X X X X X X h.sXdX    ",
"  yXaXyXl X X X X X X X X X X X . B wX$X2X@X7 X X X & X X o V rXqXqXqXqXqXqXqXqXqXqXwXl X X X X X X @ X X X X X X X X h.sXpX    ",
"  tXuX0Xl X X X X X X X X X X X . M *X*X;X#X9 X X X X X X o V 0XqX0XeXeXeX3X3X3X7X0X4Xa X X X X X X X X X X X X X X X h.aXiX    ",
"  7XtX7Xz X X O X X X X X X X X . d ).].=X-Xb o X X X X X X S =X;X;X4X*X=X=X-X-X-X-X;Xt o X X X X X X X X X X X X @ X h.uX7X    ",
"  <X7X7Xb o X X @ X X X @ X X X . 2 L.'. X Xl.$ X X X X X X 5 z c z c z x M ). X X X].p X X X X X X X X X X @ X X X X x.iX6X    ",
"  :X>X6XC X X X X X X X X X X X . X &.}.'.}.{.@.$ X X X X X o X X o o X o < 2.f.A.f.u.8 X X X X X X O X X X X X X X @ c.6X<X    ",
"    :X,X$.@ O X X X X X X X @ X o . N I.I.I.I.f.P y 3 1 1 1 1 1 1 1 1 1 1 r ' [ [ ` ) 3 X X X X X X X X X X X X X X 4 ~.oXoX    ",
"    |.XXM.$ X O X X X X X X X X X . # 1.d.f.i._ ^ ~ W E W E E E E E E E E E ~ ! ! ( ~ 3 X @ X X @ X X X @ X X X X X p {.|.XX    ",
"    }.}.U.7 X X X X X X X X X X X . . i p.p.` Q Q Q Q Q Q Q ^ / / / / / / / / / / / ' 3 X X X X X X X X X X X X X o N |.}.}.    ",
"    T.T.T.n X X X X @ X X X X X O . . o h 4.^ R R R R R Y Y / 6.3.3.3.3.3.3.3.3.6.8.>.3 X X X X X X X X X X X X X @ &.E.T.      ",
"      P.Y.&.% X X X X X X X X X X X . . o u J Y U U U U U U ^ } ] ] ] ] ] ] ] ] } ] [ 3 X X X X O X X X X X X X X 8 r.P.P.      ",
"      g.d.i.r X X X @ X X X @ X X X . . . . + u D J H H H H E _ _ _ _ _ _ _ _ _ _ _ ) 3 X X X X X X X X O X X X X m d.a.g.      ",
"      s.s.s.L X X X X X X X X X X X X o . . . . . + * - * - : ; ; ; > ; ; ; > ; > ; > # X X X X X X X O X X X X , O.s.s.        ",
"        0.0.,.8 X X X X X X X X X X X X . . . . . . . . . . . . . . . . . . . . . . . X X X X X X X X X X X X X h 9.0.9.        ",
"        8.8.8.L X X X X X X X X X X X O X o . . . . . . . . + - * * o . . . . . . . . X X X X X X X X X X X X < >.6.6.          ",
"          7.7.4.y X X X O X X O X X X X X X X X o o . . . o D Q E E > . . . o . . . o X X X X X O X X X X X X F 7.7.7.          ",
"          } } } I < X X X X X X O X X X X X X X X X X X O @ +.g.g.g.g X X X X X X O X X X X X X X X X O X X i [ { {             ",
"            { { { K % X X X X X X X X X X X X X X X X O X @ l.XXXX{.x o X O X X X X X X X X X @ X X X X X 1 ' { { {             ",
"              { { { k + o X X X X X X X X X X X X O X X X @ c.9X6X>Xc X X X O X X X @ X X X X X @ X X X < P { { {               ",
"              { { { [ h X X X X & X O X X X X X X X X X X @ b.sXuXyXb o X X X X X X X X X X @ X X X X # K { { {                 ",
"                } } } ] h X X X X X X X O X X O X X X X X @ z B B B 5 X X X X X X X X X X X X X X X , K } } }                   ",
"                  8.8.8.4.F % X X X X X X X X X X X X O X X X X X o X X X O X X X X X X X X X X X 2 P 6.6.6.                    ",
"                    9.0.0.0...1 X X X X X X X X X O X X X X X X X X X X X X X O X X X X X X X @ g O.0.9.9.                      ",
"                      a.a.d.d.,.f % X X O X X X X X X X @ X X X X X X X X X X X X X X @ X X , k p.a.a.a.                        ",
"                          Y.Y.Y.g.o.8 & X X X X X X X O X X X X X X X X X X X X X X X X % n =.P.P.P.P.                          ",
"                            R.R.R.R.U.$.p % o X X X X X X X X X X X X X X X X X X X , v ;.U.R.R.R.T.                            ",
"                              |.XXXXXXXX{.l.N 7 @ X X X X & X X X X X X o o X $ s @.N.|.XXXXXXXX                                ",
"                                  :X<X<X:X<X<X[.c.#.M a 5 , $ $ $ $ 4 9 x S j.Q. X<X<X<X,X,X                                    ",
"                                      9X9X9X9X9X9X9X8X1X+X_.(././.(._.;X7X9X9X9X9X9X9X9X                                        ",
"                                            uXuXuXuXuXuXuXuXuXuXsXuXuXuXuXuXuXuXuXiX                                            ",
"                                                    sXsXsXsXsXsXsXsXsXsXsXsX                                                    ",
"                                                                                                                                ",
"                                                                                                                                ",
"                                                                                                                                "
};
