/* XPM */
static char *e85729189e4e4c94c13449ca6a587a2fgRVDDOqxV6OK2jnH[] = {
/* columns rows colors chars-per-pixel */
"64 64 146 2 ",
"   c None",
".  c #837452",
"X  c #8D7E5B",
"o  c #917F54",
"O  c #97824F",
"+  c #9E864E",
"@  c #958256",
"#  c #9B8654",
"$  c #9F8956",
"%  c #95845B",
"&  c #99875C",
"*  c #9C895B",
"=  c #A0874E",
"-  c #A38A4F",
";  c #A58C53",
":  c #A98E51",
">  c #A38D5B",
",  c #AC9254",
"<  c #A7905B",
"1  c #AC945B",
"2  c #B09557",
"3  c #B19659",
"4  c #B59A5C",
"5  c #B99E5E",
"6  c #948661",
"7  c #978862",
"8  c #9B8B63",
"9  c #9D9066",
"0  c #A28F62",
"q  c #A49264",
"w  c #A99464",
"e  c #AE9865",
"r  c #A69569",
"t  c #AA9769",
"y  c #AC996A",
"u  c #B49C65",
"i  c #B99F61",
"p  c #B39D6A",
"a  c #AEA06D",
"s  c #BCA263",
"d  c #B6A16D",
"f  c #BBA36B",
"g  c #B7A471",
"h  c #BBA670",
"j  c #BDAA72",
"k  c #C1A666",
"l  c #C4A866",
"z  c #C1A76A",
"x  c #C5AA6B",
"c  c #C9AD6C",
"v  c #CDB16E",
"b  c #D0B26E",
"n  c #C4AB72",
"m  c #C0AB74",
"M  c #C4AC72",
"N  c #C9AF73",
"B  c #C8AF74",
"V  c #CEB270",
"C  c #CFB270",
"Z  c #CAB277",
"A  c #CCB276",
"S  c #CCB274",
"D  c #CCB578",
"F  c #D0B471",
"G  c #D1B572",
"H  c #D3B673",
"J  c #D4B672",
"K  c #D4B774",
"L  c #D2B573",
"P  c #D5B874",
"I  c #D4B875",
"U  c #D5B875",
"Y  c #D6B874",
"T  c #D6B974",
"R  c #D6B975",
"E  c #D6B976",
"W  c #D7BA76",
"Q  c #D6B975",
"!  c #D8BA75",
"~  c #D8BB76",
"^  c #D9BB76",
"/  c #D8BB77",
"(  c #D9BC77",
")  c #DBBD77",
"_  c #D9BB77",
"`  c #D0B779",
"'  c #D1B779",
"]  c #D4B978",
"[  c #D5BA79",
"{  c #D4BA7B",
"}  c #D8BB78",
"|  c #D9BC78",
" . c #DABC78",
".. c #DABD78",
"X. c #DBBD78",
"o. c #DABD79",
"O. c #DBBD79",
"+. c #DCBE78",
"@. c #DDBF79",
"#. c #DCBE7A",
"$. c #DCBF7A",
"%. c #DDBF7A",
"&. c #DCBF7B",
"*. c #DDBF7B",
"=. c #DBBE79",
"-. c #DDC07B",
";. c #DEC07A",
":. c #DAC07C",
">. c #DEC17C",
",. c #DFC17C",
"<. c #DFC27D",
"1. c #DEC37F",
"2. c #DEC17C",
"3. c #E0C27C",
"4. c #E1C37C",
"5. c #E2C37D",
"6. c #E0C37E",
"7. c #E1C37E",
"8. c #E1C47E",
"9. c #E1C47F",
"0. c #E2C57E",
"q. c #E2C57F",
"w. c #E4C57D",
"e. c #E4C67F",
"r. c #E5C67F",
"t. c #E2C47E",
"y. c #E0C580",
"u. c #E3C580",
"i. c #E1C681",
"p. c #E4C680",
"a. c #E4C681",
"s. c #E4C781",
"d. c #E5C781",
"f. c #E5C782",
"g. c #E4C681",
"h. c #E6C882",
"j. c #E7C983",
"k. c #E7CA82",
"l. c #E6C882",
"z. c #E8CA82",
"x. c #E8CA83",
"c. c #E9CB83",
"v. c #E9CC84",
"b. c #EACC84",
"n. c #EDCE84",
"m. c #E9CB83",
/* pixels */
"                                                                                                                                ",
"                                                        ; , , , 3 , 3 3                                                         ",
"                                              - ; : : : , , 1 , 3 3 3 3 4 4 5 i s                                               ",
"                                        = - : : , , , , 2 2 2 1 3 3 5 5 5 5 s s s s k k                                         ",
"                                    - - ; : , , , ; ; #                 > < 5 s k l k l l l                                     ",
"                                = : : : , , ;                                   > u l c c c c c                                 ",
"                              ; : : , , -                 3 < # @ > 4                 u c V v v V                               ",
"                          + : : : , ;                   o             *     % >           u V G G G G                           ",
"                        ; : : , ,                                       >         % w         c ^ T T T                         ",
"                      ; , : , :                     >                     *           % e       p [  . .o.                      ",
"                    : , , 2                       >                         q             8       q [ ;.o.o.                    ",
"                  : , , 2                                                                     p       T t.;.<.                  ",
"                ; 2 , 2                         <                             8                 e       [ 0.t.t.                ",
"              ; 2 2 1       >                                                                     r       :.0.0.0.              ",
"              2 , 2       >                   >                                 0                   w     r d.u.d.              ",
"            , 3 2 4     >                                                                             y     d j.d.d.            ",
"          > 4 3 4     >                     *               T     T               y                     g     ' m.d.d.          ",
"          3 4 4                                           8 T   w o.              8                             u.j.j.          ",
"        ; 5 4 5                           > u             x T T T o.o.        w y y Z                     q     j v.j.j.        ",
"        5 5 5     *                   q   w             ) ) [  .o.o.@.e.            y   p                   g     y.j.j.        ",
"      > s 5 s                                         @.^ o.@.o.@.t.o.@.<.          y                       7     m m.d.d.      ",
"      4 s s s                                       T o. .o.      N t.<.<.                c.n.c.f.            g     y.j.d.      ",
"      s k k k k l l c l c v             c ^ K     p o. .@.          n e.t.u.          1.c.j.j.j.j.j.j.        8     Z j.d.      ",
"    1 l k l l c c c c c v c             n o.T     f ;.&.@.            t.0.u.        0.v.j.c.j.m.m.j.d.m.            p j.0.u.    ",
"    > i u i i u f u z v V V             N ) ^     z <.<.;.            &.d.d.      D v.j.j.u.    D j.j.m.j.6     y     t.u.t.    ",
"                    0 G V H             N ;.o.    n t.<.<.            y.d.d.      y.m.m.j.        h j.d.v.  9   8     D e.<.    ",
"                    w J H H             N ;.@.    n 0.<.t.            <.d.d.      j.j.d.            { z.d.    a 6     h 0.<.    ",
"              q     e J K T             S t.<.    n d.t.0.            <.z.j.    y j.d.j.            A z.0.      q     p t.@.    ",
"  w v v     *       e ^ T [             A e.<.    M j.0.u.            y.m.d.    y j.j.j.            A j.t.      7 Z     ;.o.o.  ",
"  u G V     p       e ^  . .            H e.t.    M j.u.d.            u.m.m.    y j.d.d.            Z e.t.        Z      . . .  ",
"  u J G     e       y @.o.o.            D d.t.    B z.d.d.            { y.y.    y j.d.u.d.u.0.y.u.o.[ t.<.        p     K ^ T   ",
"  d T J     w       p @.@.&.            ' z.d.    Z m.d.d.                      y j.d.d.u.t.u.0.<.t.t.;.;.        0     H T [   ",
"  p  .T     w       p &.<.;.            ' z.d.    B z.j.j.                      y d.5.u.d.e.e.e.t.e.t.@.@.        0     H H '   ",
"  f o.T     p       p t.<.t.            ] j.d.    Z m.d.d.                      y d.u.,.n n n n n f H @.o.        e     V H F   ",
"  d @.o.    g       p d.t.<.            ] m.d.    A b.j.j.            <.j.u.    y d.t.t.            n o.o.        z     V v V   ",
"  p ;.o.    q       p e.y.0.            { m.j.    Z v.d.j.            <.d.u.    r u.&.t.            n o.T       7 c     G v v   ",
"  p 3.@.    X 0     g d.u.u.            { v.j.    Z m.d.j.            &.u.0.    r e.@.&.            z o.K       0     0 l l     ",
"    t.&.t.    q d   p d.u.d.            { m.j.    Z b.d.d.            &.0.t.    q t.@.@.            z ! G       %               ",
"     .t.y.            d.j.0.            j.j.j.    B m.d.d.            &.t.<.    q <.o.o.            f J G                       ",
"    A d.u.    r       ' j.j.j.        f.m.f.d.    B h.d.u.            o.;.;.    q @. .T             f G v b                     ",
"    g z.e.    7       r j.m.j.j.j.j.m.m.d.z.      n j.0.t.            &.@.o.    q o.T T             f F c c c c l l k k k s     ",
"      u.d.d.            g j.v.j.j.f.j.z.v.        p j.t.t.          Z <.o.o.    q ) T T             i b c c c l l l s k k       ",
"      &.z.d.    r           { j.m.m.j.y.            [ e.<.<.      ] 3.^  .        G N c             w l z k s s f s s s s       ",
"      h z.d.j.                            r         r t.<.@.@.o.@.@. .^ ^                                         > k 5 5       ",
"        u.m.j.    y                   j   y           y @.;.o.o.o. .@.H             u                             i 5 5         ",
"        M v.f.j.                          y f y           n o.[ H T A             w w                           < 5 4 4         ",
"          u.m.f.    8                       p               ;.     .              &                             5 4 4           ",
"          m v.d.j.    y                     0               x     z               >                     >     1 4 3 3           ",
"            &.j.u.u.    d                                                                             $     > 4 2 2             ",
"            r j.u.u.      j                   y                                 $                   #       4 2 ,               ",
"              j j.0.t.      j                 %   p N       f             s w                     #       3 3 , ,               ",
"                D j.<.;.      p                 q f       u *       l     e * $                 $       , 2 , ,                 ",
"                  ] e.;.@.      w               X v       e &       z     & 1                         , 2 , ,                   ",
"                    K 3.@. .      7               s f     1 w       k     * 4                       2 , : :                     ",
"                      D @. .T         0             u       w             >                     > 2 : : :                       ",
"                        N o.T T H         >           >                                       , , : : :                         ",
"                          f T G G F v           *       %             #                   ; , , : : ;                           ",
"                            q c G V c c c               . > <     $ > o               ; , , : : :                               ",
"                                u c V c l l l                                     : , , : : - -                                 ",
"                                    u l c l z k k s s                     , , , , : : : : =                                     ",
"                                        1 s k k k i i 5 4 4 4 3 3 2 1 , , , : : : : - +                                         ",
"                                              < 3 4 5 5 4 4 4 3 2 2 2 , , , ; ; +                                               ",
"                                                      # $ > ; ; ; ; # + O                                                       ",
"                                                                                                                                "
};
