/* XPM */
static char *_fec28b8dae24641858d1befa47722eaVSsdXNLkuepnFlYr[] = {
/* columns rows colors chars-per-pixel */
"32 32 189 2 ",
"   c None",
".  c #020203",
"X  c #070708",
"o  c #0D0D0D",
"O  c #080804",
"+  c #110F08",
"@  c #13120F",
"#  c #1B1909",
"$  c #131312",
"%  c #181713",
"&  c #1B1B15",
"*  c #1C1C1A",
"=  c #221B03",
"-  c #201C08",
";  c #201F16",
":  c #262208",
">  c #282308",
",  c #232114",
"<  c #25241E",
"1  c #2E2C1C",
"2  c #2B2819",
"3  c #322F1C",
"4  c #242421",
"5  c #282724",
"6  c #2A2A25",
"7  c #2D2D2C",
"8  c #312F23",
"9  c #363324",
"0  c #3E3A25",
"q  c #32312D",
"w  c #3B382C",
"e  c #363636",
"r  c #3B3A35",
"t  c #3E3E3D",
"y  c #383733",
"u  c #413B1B",
"i  c #433F27",
"p  c #5C5012",
"a  c #735C0B",
"s  c #6C5D15",
"d  c #746515",
"f  c #786917",
"g  c #48432A",
"h  c #44433B",
"j  c #4D4A38",
"k  c #5D5633",
"l  c #56523A",
"z  c #5F5839",
"x  c #5F5834",
"c  c #776C27",
"v  c #7D7026",
"b  c #6E6531",
"n  c #464645",
"m  c #4C4B44",
"M  c #474847",
"N  c #59584F",
"B  c #565654",
"V  c gray37",
"C  c #6A6545",
"Z  c #736D46",
"A  c #75704F",
"S  c #656353",
"D  c #67655D",
"F  c #6C695A",
"G  c #767154",
"H  c #75746E",
"J  c gray47",
"K  c #807018",
"L  c #827424",
"P  c #A6820C",
"I  c #B58E0E",
"U  c #8F8027",
"Y  c #928329",
"T  c #8E8137",
"R  c #A18E25",
"E  c #AB992D",
"W  c #CEAB16",
"Q  c #C6AA2A",
"!  c #C8B12D",
"~  c #D6B72B",
"^  c #CDB737",
"/  c #C8B43C",
"(  c #D4BC35",
")  c #DCC23A",
"_  c #DEC636",
"`  c #E4CC3A",
"'  c #E1C935",
"]  c #89804F",
"[  c #968C4D",
"{  c #898259",
"}  c #A99D58",
"|  c #B2A145",
" . c #ADA054",
".. c #898468",
"X. c #908B6A",
"o. c #989169",
"O. c #828175",
"+. c #83827A",
"@. c #888679",
"#. c #9C987F",
"$. c #A69E6B",
"%. c #A29D7E",
"&. c #B7AC68",
"*. c #B6AD76",
"=. c #BDB377",
"-. c #D2BD43",
";. c #C1B56B",
":. c #C8BB6A",
">. c #C1B679",
",. c #C4BA7B",
"<. c #DDC744",
"1. c #E4CC42",
"2. c #E5CE4A",
"3. c #E7D14B",
"4. c #EAD65E",
"5. c #CFC066",
"6. c #D7C769",
"7. c #CDC279",
"8. c #DBCD74",
"9. c #D4C77B",
"0. c #D7C977",
"q. c #E7D462",
"w. c #E8D562",
"e. c #EFDF7F",
"r. c #8B8B89",
"t. c #908E82",
"y. c #9B9989",
"u. c #9F9D91",
"i. c #A09E8D",
"p. c #A7A287",
"a. c #B6AF88",
"s. c #B7B082",
"d. c #A2A199",
"f. c #BBB692",
"g. c #BEB999",
"h. c #A3A3A0",
"j. c #B7B5A4",
"k. c #C7BF88",
"l. c #C6BC83",
"z. c #C1BC99",
"x. c #C3BFA9",
"c. c #CFC583",
"v. c #D4CB8D",
"b. c #D9CD85",
"n. c #DED285",
"m. c #C9C398",
"M. c #D6CD91",
"N. c #DFD494",
"B. c #E8DA88",
"V. c #E3D99E",
"C. c #F1E38D",
"Z. c #EAE09D",
"A. c #F4E89E",
"S. c #CDC7A2",
"D. c #D4CDA1",
"F. c #DBD4AB",
"G. c #DBD3A6",
"H. c #CDCAB5",
"J. c #CAC7B6",
"K. c #D1CDB1",
"L. c #DBD6B4",
"P. c #E0DBBE",
"I. c #E8E0AE",
"U. c #EBE4B8",
"Y. c #F6EDBA",
"T. c #F7EDB4",
"R. c #CECDC9",
"E. c #D9D6C5",
"W. c #DBD9CA",
"Q. c #DAD9D4",
"!. c #E1DECD",
"~. c #EAE4C3",
"^. c #E4E1CD",
"/. c #EDE8CA",
"(. c #EDEAD7",
"). c #E9E7D6",
"_. c #F2EFDC",
"`. c #FDF9DC",
"'. c #F6F2D9",
"]. c #E7E7E3",
"[. c #E8E7E4",
"{. c #EBEBE7",
"}. c gray92",
"|. c #F4F2E5",
" X c #FAF7E1",
".X c #FFFBE2",
"XX c #F6F5EE",
"oX c #F4F4F3",
"OX c #F9F8F4",
/* pixels */
"                                                                ",
"                        |.|.|.|.|.|.|.|.                        ",
"                  P.L.K.j.y.@.O.O.+.p.J.L./.U.                  ",
"              v.M.a.G y & o o X o o o & h ..m.V.                ",
"            0.&.Z 4 o o o $ o o o o o o o o 9 { 9.8.            ",
"          5. .g o o o o o o o o o o o o o o o $ k :.8.          ",
"        5.} 3 o o o o o o o $ D H 4 o o o o o o o i ;.8.        ",
"      9.&.9 o o o $ o o o o & %.f.q o o @ o o o o o j 7.n.      ",
"      c.m o $ o o $ o o o o & [ } 3 o o o o $ o o o o A N.      ",
"    F.o.$ o o o o o o o X o o 2 3 $ X o o o o o o o o * a.P.    ",
"    L.h o o o o o o o , g k x z z z k k z 9 o o o o $ o D ~.    ",
"  (.j.% o o o o o $ l $.=.>.,.D.G.l.>.>.,.C o o o o o o 5 H.'.  ",
"  oXJ o o o o o o m z.S.m.g.f.J.H.g.f.f.f.S o o o o o o $ d.OX  ",
"  oXB o o o o o % u.Q.j.N 6 5 5 5 4 4 < 4 & o o o o $ o X J OX  ",
"  }.i X o $ o o 7 R.Q.B X o o e M n n n M q o o o o o o o V OX  ",
"OX[.t o o o o o t Q.R.7 o o o h.}.[.].].{.r.o o o $ o o X B oX  ",
" X).y o o o o o y L.L.r X o $ u.^.!.^.(.'.t.o o o o $ o o B  X  ",
"  /.h o o o o o & c.U.X.& o o 6 r y m v.Z.{ o o o o o o X D '.  ",
"  Y.S + o @ o o X ] B.6.R f f f d d K ! ) v o o o o o o o ..T.  ",
"  A.o.o o o o o X : | ~ W W W ~ ) ) ) ) ) L o o @ o o o % *.A.  ",
"  e.:.1 o o o o o . # a P I I Q ^ ^ ^ ^ ^ v o o o o o o 0 8.    ",
"    w.b o o o o o o . . + # = = : : : : > # $ o o o o o T w.    ",
"    3./ 2 o o o o o o X . . O p s # . . . X o o o o o u -.2.    ",
"      ` Y % o o o o o o o o & >.B.w X o o @ o o o o ; E `       ",
"        _ c @ o o o o o o o * J.^.r o o o o o o o % U '         ",
"        1.<.c @ o o o o o o $ t n % o o o o o o ; T 1.          ",
"          w.q.[ 1 o o o o o o X o o o o $ o o 0  .w.            ",
"              C.c.A 1 o o o o o o X o o o 9 { b.C.              ",
"                T.Y.G.y.S t 5 4 4 6 h F p.F.Y.T.                ",
"                    `..X X(.W.E.E.Q._. X.X`.                    ",
"                                                                ",
"                                                                "
};
