/* XPM */
static char *_d0d5e97978343d0d323ae99d115cfe6O31Db1SIRx7e6RSs[] = {
/* columns rows colors chars-per-pixel */
"32 32 203 2 ",
"   c None",
".  c #978458",
"X  c #A48B50",
"o  c #A68D50",
"O  c #A78D50",
"+  c #A68D51",
"@  c #A78D51",
"#  c #A58C53",
"$  c #A78E52",
"%  c #A88E52",
"&  c #A88F52",
"*  c #A98F52",
"=  c #AA8F52",
"-  c #A48F5D",
";  c #A99053",
":  c #AA9053",
">  c #AB9053",
",  c #AA9054",
"<  c #AB9154",
"1  c #AB9155",
"2  c #AC9255",
"3  c #AC9356",
"4  c #AD9356",
"5  c #AC9257",
"6  c #AC9357",
"7  c #AE9356",
"8  c #AE9456",
"9  c #AF9558",
"0  c #AE965E",
"q  c #B09557",
"w  c #B09658",
"e  c #B19659",
"r  c #B1975C",
"t  c #B29859",
"y  c #B3985B",
"u  c #B4995B",
"i  c #B3995C",
"p  c #B2995F",
"a  c #B59A5C",
"s  c #B79C5E",
"d  c #B89D5E",
"f  c #AA9564",
"g  c #AD9766",
"h  c #AE9864",
"j  c #B09962",
"k  c #B59B61",
"l  c #B69C60",
"z  c #B69D61",
"x  c #B49C62",
"c  c #B19B67",
"v  c #B49C64",
"b  c #B49C65",
"n  c #B89D60",
"m  c #BBA060",
"M  c #BBA061",
"N  c #BAA063",
"B  c #BCA161",
"V  c #BCA162",
"C  c #BEA263",
"Z  c #B9A065",
"A  c #BAA167",
"S  c #BFA464",
"D  c #C1A565",
"F  c #C1A665",
"G  c #C2A766",
"H  c #C3A767",
"J  c #C4A867",
"K  c #C0A669",
"L  c #C0A76D",
"P  c #C3A869",
"I  c #C5A968",
"U  c #C7AB69",
"Y  c #C5AA6B",
"T  c #C7AB6A",
"R  c #C3A96D",
"E  c #C5AA6C",
"W  c #C6AC6E",
"Q  c #C8AC6A",
"!  c #C8AC6B",
"~  c #CAAE6C",
"^  c #CAAE6D",
"/  c #C9AE6E",
"(  c #CAAF6F",
")  c #CCB06D",
"_  c #CCB06E",
"`  c #CDB06E",
"'  c #CDB16F",
"]  c #CEB26F",
"[  c #C9AF71",
"{  c #CAAF71",
"}  c #CFB270",
"|  c #CEB271",
" . c #CDB272",
".. c #CEB272",
"X. c #CFB372",
"o. c #CBB175",
"O. c #C9B277",
"+. c #CBB377",
"@. c #CCB174",
"#. c #CEB374",
"$. c #CCB276",
"%. c #CDB376",
"&. c #CFB475",
"*. c #CFB576",
"=. c #CEB477",
"-. c #CFB578",
";. c #D0B370",
":. c #D1B572",
">. c #D1B573",
",. c #D2B572",
"<. c #D0B575",
"1. c #D1B575",
"2. c #D2B574",
"3. c #D2B674",
"4. c #D2B675",
"5. c #D3B775",
"6. c #D1B677",
"7. c #D2B676",
"8. c #D3B776",
"9. c #D3B777",
"0. c #D4B774",
"q. c #D4B874",
"w. c #D5B875",
"e. c #D6B975",
"r. c #D7BA75",
"t. c #D4B876",
"y. c #D6B976",
"u. c #D7B976",
"i. c #D7BA76",
"p. c #D8BA77",
"a. c #D8BB77",
"s. c #D9BB77",
"d. c #D0B578",
"f. c #D2B778",
"g. c #D1B77A",
"h. c #D3B878",
"j. c #D2B87A",
"k. c #D3BA7B",
"l. c #D4B879",
"z. c #D5BA79",
"x. c #D7BA78",
"c. c #D4B97A",
"v. c #D4BA7B",
"b. c #D5BB7B",
"n. c #D7BB7A",
"m. c #D6BB7B",
"M. c #D5BB7C",
"N. c #D6BB7C",
"B. c #D6BC7C",
"V. c #D8BB78",
"C. c #D9BC78",
"Z. c #D9BC79",
"A. c #DABD78",
"S. c #DABC79",
"D. c #D9BD7B",
"F. c #DABD7A",
"G. c #DABD7B",
"H. c #DBBE7A",
"J. c #DCBE7A",
"K. c #DCBF7A",
"L. c #DCBF7B",
"P. c #DDBF7B",
"I. c #D8BD7C",
"U. c #D9BE7D",
"Y. c #DABE7C",
"T. c #DBBF7D",
"R. c #DBBF7E",
"E. c #DDC07B",
"W. c #DEC07B",
"Q. c #DCC07D",
"!. c #DEC07C",
"~. c #DEC17C",
"^. c #DFC27C",
"/. c #DDC17E",
"(. c #DCC17F",
"). c #DEC17E",
"_. c #DDC27F",
"`. c #DFC37F",
"'. c #E0C27D",
"]. c #E1C37D",
"[. c #E0C37E",
"{. c #E1C37E",
"}. c #E1C37F",
"|. c #E1C47E",
" X c #E2C47E",
".X c #E2C47F",
"XX c #E2C57F",
"oX c #E3C57F",
"OX c #E0C480",
"+X c #E2C580",
"@X c #E3C681",
"#X c #E4C680",
"$X c #E4C681",
"%X c #E5C781",
"&X c #E5C782",
"*X c #E5C882",
"=X c #E6C882",
"-X c #E7C882",
";X c #E6C982",
":X c #E7C982",
">X c #E7C983",
",X c #E8C983",
"<X c #E8CA83",
/* pixels */
"                                                                ",
"                      o % < < 5 9 i s M C                       ",
"                  o * * #             j M I !                   ",
"              o * *                         K ` ,.              ",
"            * >                                 ..x.            ",
"          < 2                                     5.K.          ",
"        2 8                                         h.oX        ",
"      2 e                                             Q.$X      ",
"      a                       ,...                      $X      ",
"    i s                     ..q.G.5.                    M.=X    ",
"    M                     q.G.5.5.K.{.        Q.          oX    ",
"  z F I U ! ^       ,.p.  G.      f.oX    OX>X>X=X=X      U.$X  ",
"      v v E ;.      5.G.  E.      %.$X    >X$X  h.>Xx.    #.oX  ",
"          W q.      x.E.  {.      f.=X  x.<X      Q.@X      L.  ",
"  `       { V.      G.{.  oX      f.,X  M.<X      U.oX      V.  ",
"f ,.      #.K.      Q.oX  $X            m.$X$XoX{.Q.Q.      5.  ",
"g q.      f.{.      Q.$X  $X            h.@XU.x.x.U.G.      ..  ",
"  G.      f.oX      @X=X  =X      -.$X  5.{.      5.G.      `   ",
"  K.      x.=X      OX=X  =X      #.@X  *.E.      ..5.          ",
"  G.OX    +.=X      =X    $X      #.Q.  ..G.      ^ `           ",
"  x.@X      OX>X=X>X=X    OX      f.K.  { q.      E ^ I I F S   ",
"    $X        h.Q.U.      x.{.K.G.G.G.    E         Z z k B     ",
"    OX=X                    5.q.q.5.                    r d     ",
"    +.=X                      @.L                       u       ",
"      U.$X                                            9 e       ",
"        Q.{.            c             -             8 2         ",
"          U.K.          h     j     . 0           < <           ",
"            q.q.                                < *             ",
"              ( ..`                         * * o               ",
"                A P I F B               < * o                   ",
"                      z n d a t e 2 < o X                       ",
"                                                                "
};
