/* XPM */
static char *f4eb3aa4c7204e04c29a3e86c2ea72e21tL8AxKcY4eZB456[] = {
/* columns rows colors chars-per-pixel */
"16 16 140 2 ",
"   c None",
".  c #030407",
"X  c #040406",
"o  c #080809",
"O  c #09090B",
"+  c gray4",
"@  c #0B0B0A",
"#  c #0A0A0B",
"$  c #0B0B0B",
"%  c #0A0B0C",
"&  c #0B0B0C",
"*  c #0A0B0D",
"=  c #0B0B0D",
"-  c #0B0C0D",
";  c #0C0C0C",
":  c gray5",
">  c #0E0D0D",
",  c #0D0D0E",
"<  c #0D0E0E",
"1  c #0E0E0E",
"2  c #0F0E0E",
"3  c #0F0F0E",
"4  c #0E0E0F",
"5  c gray6",
"6  c #10100E",
"7  c #12110F",
"8  c #101010",
"9  c #111110",
"0  c #131310",
"q  c #131311",
"w  c #131313",
"e  c #151410",
"r  c #161514",
"t  c #191811",
"y  c #201F16",
"u  c #302707",
"i  c #24231E",
"p  c #28261B",
"a  c #3B361C",
"s  c #282720",
"d  c #2F2D22",
"f  c #3A3622",
"g  c #3B3829",
"h  c #3B392B",
"j  c #363635",
"k  c #383733",
"l  c #3E3E3D",
"z  c #443E1E",
"x  c #403C26",
"c  c #46401A",
"v  c #524A1C",
"b  c #5E541B",
"n  c #644F07",
"m  c #756110",
"M  c #7E6F1F",
"N  c #44412F",
"B  c #4B462C",
"V  c #524D2E",
"C  c #4F4B37",
"Z  c #44433A",
"A  c #45443F",
"S  c #534F3C",
"D  c #635C36",
"F  c #7B6D20",
"G  c #434242",
"H  c #4E4C40",
"J  c #4A4944",
"K  c #4F4E46",
"L  c #4A4A48",
"P  c #555343",
"I  c #53524C",
"U  c #5C5A4B",
"Y  c #5E5C53",
"T  c #585856",
"R  c #615D45",
"E  c #6332113",
"W  c #686345",
"Q  c #6F6A49",
"!  c #64635A",
"~  c #69675D",
"^  c #736F58",
"/  c #777463",
"(  c #797665",
")  c #787667",
"_  c #7F7C63",
"`  c #70706F",
"'  c #7E7D75",
"]  c #867E55",
"[  c #807E76",
"{  c #9D861C",
"}  c #A88E1B",
"|  c #A18E26",
" . c #A89631",
".. c #B3A034",
"X. c #BAA734",
"o. c #C2AC32",
"O. c #CAB63D",
"+. c #D0BB3F",
"@. c #8B8143",
"#. c #8D854E",
"$. c #978C48",
"%. c #8E8659",
"&. c #928951",
"*. c #9E955B",
"=. c #A2985C",
"-. c #BFAC4E",
";. c #848068",
":. c #928B65",
">. c #938C67",
",. c #8A8777",
"<. c #8C8973",
"1. c #98947D",
"2. c #A39E7F",
"3. c #B3AC7D",
"4. c #C3B563",
"5. c #C8BA63",
"6. c #858580",
"7. c #8E8D8A",
"8. c #939182",
"9. c #979487",
"0. c #9A9789",
"q. c #949390",
"w. c #949492",
"e. c #B5AF8B",
"r. c #BEB789",
"t. c #B9B69E",
"y. c #C4BC8C",
"u. c #C4BF9F",
"i. c #C2BDA2",
"p. c #CCC495",
"a. c #C6C1A4",
"s. c #E6DDA3",
"d. c #EEE4A8",
"f. c #DAD7C1",
"g. c #D9D9D7",
"h. c #E3E0C9",
"j. c #E7E5DA",
"k. c #E3E3E0",
"l. c #E4E4E0",
"z. c #EDECE9",
/* pixels */
"              j.j.              ",
"        r.<.! I I ~ 1.p.        ",
"      &.h 9 - ; 5 & w N =.      ",
"    #.y ; ; ; H U ; ; ; p *.    ",
"  3.d ; 5 ; ; x B 7 ; 5 ; h y.  ",
"  ) ; ; 9 C ] :.>.%.W 9 ; 8 ,.  ",
"l.L $ & J t.;./ ) ^ P 9 ; $ T z.",
"g.j ; ; 6.7.& l q.w.` r ; & G k.",
"f.j ; - %.0.t Z 8.p.e.r 2 $ A h.",
"s.S & ; f -.} { | X. .w ; $ R d.",
"  @.5 ; $ u n m M F b 9 ; w $.  ",
"  O.c - 5 . X V D . & 5 ; v +.  ",
"    ..a & ; ; K Y ; ; ; z X.    ",
"      4.W i 2 & & 9 s Q 5.      ",
"          i.9.' [ 0.a.          ",
"                                "
};
