/* XPM */
static char *e3183333b9004001a2d5fd63ca24c293suW7t17JuLecIKay[] = {
/* columns rows colors chars-per-pixel */
"16 16 67 1 ",
"  c None",
". c #A48B52",
"X c #A78D51",
"o c #A68D52",
"O c #A88F53",
"+ c #A98F53",
"@ c #A99055",
"# c #AB9155",
"$ c #AC9256",
"% c #AC9357",
"& c #AE9459",
"* c #B09659",
"= c #B2985B",
"- c #B3995C",
"; c #B3995D",
": c #B79C5E",
"> c #B99F64",
", c #BDA263",
"< c #BDA264",
"1 c #BCA265",
"2 c #C1A668",
"3 c #C3A869",
"4 c #C2A86B",
"5 c #C6AA6B",
"6 c #C3A96C",
"7 c #C7AC6C",
"8 c #C7AC6D",
"9 c #CCB06F",
"0 c #C7AF75",
"q c #C8AE70",
"w c #CAB072",
"e c #CEB373",
"r c #CFB373",
"t c #CEB374",
"y c #D0B473",
"u c #D1B574",
"i c #D2B675",
"p c #D4B776",
"a c #D4B876",
"s c #D4B877",
"d c #D5B977",
"f c #D6B977",
"g c #D7BA77",
"h c #D3B878",
"j c #D2B87A",
"k c #D5B978",
"l c #D4B979",
"z c #D7BB79",
"x c #D6BB7A",
"c c #D7BC7C",
"v c #D8BC7A",
"b c #D9BD7A",
"n c #D9BD7B",
"m c #DBBE7C",
"M c #DCBF7C",
"N c #DCBF7D",
"B c #DDC07C",
"V c #DCC07E",
"C c #DDC07E",
"Z c #DCC17E",
"A c #DEC27F",
"S c #DFC27F",
"D c #DFC37F",
"F c #E0C37F",
"G c #E0C480",
"H c #E1C480",
"J c #E3C680",
/* pixels */
"      +#*:      ",
"    X.    >7    ",
"   +        t   ",
"  $          z  ",
" =     rp     D ",
" ,4   uzz  D  j ",
"  4  dz  DG D  D",
"6    MM   D m  u",
"w    GG   Mmu  r",
"j 0H GM  md  7  ",
" c DG lDd q  2< ",
" D     ty     - ",
"  m          $  ",
"   u        +   ",
"    5<    XX    ",
"      -&#X      "
};
